<mxfile host="app.diagrams.net" agent="Mozilla/5.0 (Windows NT 10.0; Win64; x64) AppleWebKit/537.36 (KHTML, like Gecko) Chrome/132.0.0.0 Safari/537.36" version="26.0.10">
  <diagram name="Page-1" id="uv8ZIo3pIDL9R7XlyzqD">
    <mxGraphModel dx="1434" dy="746" grid="1" gridSize="10" guides="1" tooltips="1" connect="1" arrows="1" fold="1" page="1" pageScale="1" pageWidth="827" pageHeight="1169" math="0" shadow="0">
      <root>
        <mxCell id="0" />
        <mxCell id="1" parent="0" />
        <mxCell id="ENiAY2C4UwKz_ZY1WDa7-18" value="" style="rounded=0;whiteSpace=wrap;html=1;fillColor=none;dashed=1;dashPattern=8 8;" parent="1" vertex="1">
          <mxGeometry x="90" y="235" width="350" height="310" as="geometry" />
        </mxCell>
        <mxCell id="ENiAY2C4UwKz_ZY1WDa7-3" value="" style="rounded=0;whiteSpace=wrap;html=1;fillColor=none;spacingLeft=0;labelBorderColor=none;textShadow=0;labelBackgroundColor=none;strokeWidth=1;glass=0;shadow=0;dashed=1;" parent="1" vertex="1">
          <mxGeometry x="60" y="195" width="722" height="390" as="geometry" />
        </mxCell>
        <mxCell id="ENiAY2C4UwKz_ZY1WDa7-19" value="" style="rounded=0;whiteSpace=wrap;html=1;fillColor=none;dashed=1;dashPattern=8 8;" parent="1" vertex="1">
          <mxGeometry x="540" y="235" width="212" height="310" as="geometry" />
        </mxCell>
        <mxCell id="ENiAY2C4UwKz_ZY1WDa7-1" value="" style="image;sketch=0;aspect=fixed;html=1;points=[];align=center;fontSize=12;image=img/lib/mscae/Docker.svg;" parent="1" vertex="1">
          <mxGeometry x="80" y="128" width="73.17" height="60" as="geometry" />
        </mxCell>
        <mxCell id="ENiAY2C4UwKz_ZY1WDa7-29" style="edgeStyle=orthogonalEdgeStyle;rounded=0;orthogonalLoop=1;jettySize=auto;html=1;exitX=0.5;exitY=1;exitDx=0;exitDy=0;strokeColor=#0000CC;align=center;verticalAlign=middle;fontFamily=Helvetica;fontSize=11;fontColor=default;labelBackgroundColor=default;endArrow=classic;" parent="1" source="ENiAY2C4UwKz_ZY1WDa7-4" edge="1">
          <mxGeometry relative="1" as="geometry">
            <mxPoint x="172" y="475" as="targetPoint" />
          </mxGeometry>
        </mxCell>
        <mxCell id="ENiAY2C4UwKz_ZY1WDa7-4" value="" style="shape=image;imageAspect=0;aspect=fixed;verticalLabelPosition=bottom;verticalAlign=top;image=data:image/png,iVBORw0KGgoAAAANSUhEUgAAAEAAAABACAYAAACqaXHeAAAABGdBTUEAALGPC/xhBQAAACBjSFJNAAB6JgAAgIQAAPoAAACA6AAAdTAAAOpgAAA6mAAAF3CculE8AAAACXBIWXMAACxLAAAsSwGlPZapAAARjElEQVR4AeVbaXBUV3Y+9y3drdYuBAgQFggJMJtsQwLCuMyAPcYLYLCBAPG4ZjyZKv/IVCbjcs0WRxPHsSeZOHGlXIlddjKMbfDGvjiYyXghEgKbgBEMi0FIBoPFJgktvbzl5juv9aRWq1vdLYmMkxzV03vv3nOX891zzzn33teCQOcqiwu8puaxfJplmkHLb/vMkNlpNgfzzSnHjhmCSDLf/yl6+5iHVk4NC3lvmfd8i/WxVxETw7Y0IKklBBlSkqGQCJKQAYjfAeGvS0EtJMVVkvKSUMRFIe0LCikXSIimkZ6x18SHH5r/K0Dad/QHGNO76NzxJRhcEhcqxy2FsK+risg0ITmTcP6cR8hHpDhpnB4h5jLxD5cphWwRki6gzGnw1tlkH1I1eWTkx42N4Le7inw9btV1j5Pf/yIFAycpeHm6Kw+dm1Nyr66oG5CQy8OfKnEFDJAKaFTcGShWA6hSu5DyuFDoIyGV95ra2/dXHGliTfr9UU3dY6Tr/0KqqlEodIh2vzuL+99NjXNK7/Iq8i2MZEE6IHRXEPXAQGhARkMLoQigJwDrRkyj18ZUnz0Zxfo/81hz9Fvk0V8hy9IBAEbIOECV02ZzP7uppLb+N6ZlP4yOXtF5WAdBrPdhCN5pS7JQIUCd7BPip4oUn3w1d/xL52aXlg+i+vSK1hxZQ7r2Mtm2jiuisugeV9ILAE4o3t/4gWWLB22SlzyDBIHrc4ltC4MhpcxGvd/TVLnvfGXpnwGbPn1wywzJvfbYw6R7X0XDXox+V5XO4Ib4JW7jY2rPVIfIZhAueJTBaUKsEKwZDARoWIZC/3Bh7vj1Z2aW5sbyDcl7Td0yUpV1JG1fj/CoOSJSgNuICwBnjKtp3GdbyhLLpvNwkZw0pMTTIgAgMoRY5ffSxtZ7KguGtIHquvuh9q/Bbft7Ce80wvIIxyAnBID5Ru8/czBE1hKob8ONAIHbYG3wCFpoUPtG+eNvD+e0QVPNsUUweOshZCZZcUITZ2rLNm6nXwCYYdy+xkMGKYstKetvFAisCUpnYL5x+eJm+cx3R3K7A6bqYwtIVzegfA6ZcYTnih2Flq38mBQAZrqp5szRoG0/ANd4yncDpgO30REyyLrWfDu1dWyVP1gxhtPSppojd5KuvINyeQmF765UucaPKQHAjONqG48HTLEY4fKJGwECQmtqvoI+WdZs8mhb5ZNri7ndlKmmbi7pnndIUQqSCs9xibSuct0pA8DMEw7UnzJM635oQt2Qg4B5aYcNCrViamrqTMST2+UTK8Zzu0lp32ezSdM2ISQdjgAnKbsTC9jiMjOmBQAXKPnki/qgLZcgyDk81CAgRiArCPdswl+r6i2kqNvkj9aUcrsJae+RmaR6N4J3ZErCc0WObVAu8WPaAHCh8bUNDR2WuhggfJoxlDYBmon1eMRIOSAo0+DDd8onV0zidvvQ3qMV5NW3QO3HkOEEdn1Y+iSwB7DtIElj4ABwpeX7T583hbkUINQOLQhOkBTpN4OgKJOhDtvlk6tu7iVM9WfTyKtthqYUpyw8V6A4Y95Cqn7Fee1VaZovN1WfwxJYWYrFzn8yCKptkW7BacqBr4AFL1SiKaIJWDeInfKJ1TOcrE9OTEJ4uwXCj6dwiiPv1skASPqKzk9J3Q26ZePdi2rOXOpQ1eUiHNj9Vf5YOlxcQe3eLPIZvJcSNZrxCsemQTtVXe+7/xQBYTzUdtsL//x3K7HDwCM/gcJOOB9bS//vjgbIBlopnIWB1j93arnle09fnvGrU+tacgvvvubLVcZea6S1n75Bjxz4NYAIkKFCqBRIoHOq1wvOOMA500GULGj+8q1M26COsLuwSaHiaJbIFDjuJg3ICLqF3XvmTrno86Lyl6748xUpFTo7bDw9dd/P6Nt//Cv6Ir+EvGYKIwVtUXSNNJ8nrvxOW9hMGN3RQv5QZ1c05/YgjTsvhxVxxC0xaAAy35MLhU4bVIWyFQwKR5ka2vDDHX9UNpce+dbr9LuiqUlB4NmiZfgAAk+BOBrAPYaNOZRXRFd9WYl5XMni3dkDhBByKqLOzR4UAFm75J2osyv0dKvsuWcAhDPDx9GfrHmFzhSWkcfqx2BBaE9ONoxA4i5J7K89XzabbCXGUPY02f9TxMA2UlPgrMuYuDWXI8E9e5e8HRuBCD0p39kETMDnhVuvH3YTff/hF6nZX+B4iris8CK+vJzE6m+G6V9LZ9Ku0fCK8VZ4cSuNSdTY5MlPafEszKEIDQiAjJ1ytlQJ0RcN7094txEfQPi0ZBr9/N6/gmewMU1iVByjr/m8pGdDtXmOxhJc60dFZfTnFfcMTPWj6xPKnujXtAHw75SzsKe6CcIj9Iyuqv9nP7T/3VsfpLdmrnFcZDS3xHLYl58bmf/RGfxsGlSDabRqzgq6rvsAQByAYsvEe2frHwy1U8j8IDo7LQAyt8sKRaPNQqPRxF6IS7sXT0t+ZiuYgFT0/ZcLn6T6wgkwlFCLLuKVYEbhMPc1cmdDCOG3jZ1CS25fS00+2AcYwQFTxLhW050V3fOf60oZgMyP5HTSaKsdoGKjMUTh+gCFTnVQ6GQHhU93ktEQJLMpTHabhZUmOs9AxADCAFzIHUb/OP+HpHQJwwsgPdNPnlwWsGt0kWeh/LNT59OKylV01ZMxOOFd1KR83X107/2Ml8tClL09NDl8Rd1hXTMnWM2wH1DZPsRJjtDYAPfgwCxLJTUXW/B5Gil+qAfngccpKS16Y91aur1+LwXhQ/PKSijrpjGRVSDm+wm4uh9WLILBwxqIgWJtGAyx8TONsyR8t9Cc8uvRVSX1J96/bS0PNsnt1hWrXLZjI5V9abwLauykc+04L5OdGMVmg8zLBtktBrQCCgFghC4orCt0OWsULavbgj0MnXLLxgEfm9o1L70waS49NmsZHckfNXBrHy0hP3sQXZrWX1Pl5A9js/oPhX/aXBJuJ15uTsRCHRLwMKZAzMYgMUFbrBYTl0EGAFALdNKKfFQ7bjatG/OHNN84R1kZfto8ahL9YvI8+iwfmsCjPlBXF2m15z/P/WDgOIn2V3oSe54SA/CEzBSi5XVSPVMI8fygyLE0cH44MDS/CpFxWdCowH/Rns422mfn0KXJi6h66uwuwdNwLck6xYMA/Mmyn6B5c3qpvls0oRFUvFefIo9/3qCFd1ty7uiQDXX0dJBRdAibt2FqzymgwyUIbti9DdWou2364DZN8zmaN2OXmxR7j68Bf3F5phSe7w+p8DiTJC1MouxDUqe+T825F2nvcEyJHITIE28mNdhJ4U5cgQDZ7na2O41ie53Kuw+eIxB8leZM+cv+2OMCIKT6M9IQdQxW9bllrOAIZ5Ki6ASJW7FvOfIUEmF7r0tqy0aeOEg5rSdIy56EJnXyZWeTGYKbBRB8t7vP81AsFUDgMURWFmmm+ZqhBx5HmX6DB/Qghn7ScptQRS1UkpdlMZlpvtrAVwuRMmMHiZv3OBpArAkQxDp3nWQrL5MN0gsqKav8R2gu0leBfG5ZQngTOz4GgOA7gyE5VojnFlFGwWLHk59PmqQNhfrI7zSMxxcuSaiPBijCfkxqfp2M7vVCkioSZLOgUHNl7jqMPvYfLKzzHeHR/5BJsh3GzvEqHjKaDziXp2AuBAxBvgjwvEHiychwLk5jANyLgXD5FPAp8PVaTi6JcGhjTnHudxpEcuG5570BqGrOk6a9lPpbtiaQt1ey6SEx6jgp8+B5snD+YMLwucSjex0LA5y69rhVSYHzb2AaTCWh+YFQV0SIMq6QXJxHmAXtq7bIhCuVgc4tenPo0YaxeUlHnutj6u0FbHkH9qTGwApFcgfyH6MsiutI+caLRJl80gNNiCbEBbINAACIbsLiwuo8S4Ev30Ry7zHp5nEfoAkMSvRFMHgyGNil+YxHmiqK0voMpxcAiqT7ALHbVPp3Fn74GVLueBmujkPmmLogswxC/XH1GUbFQ6GmXRS6upeEEqUxSXoheOSDwd0iaK2+PGJEexL2Ptk9AFRJD4C9g7DhOCDCXiD5rpNSuQ53HG/ZcaJsVn+e+/HWEl2Lhc6Gl8ns+BwgwGYkIRaeQsHf2rJ19bXyYXEDnSRVRE0Bs208hqVswOoPgZUp7+O7j8a+au/2glW3EwBAE+KSUEmaLdRx+nlE3vj8sB8QIiMf+NgksaK1pKQ5bn0pJPZogDRuIQ170uhk2sSj728hUVqbWHiu1ITlDsHVRc//2MawOrQCX1D7qWede7zpIOAZZDhUY4RDK66PzYWhGTh1A4B12m2AfGA1AQDB1j4TWshgxCNW/zCsO0BIShh5q7OB2k78nMLN+yOaAGC4fwJ7AzJs1IbDweXtZUXO+V7S+vph6O4t+j012v30U6ZvlsDIduDrlo68EMUY/W5mVnse/bjzv5ur50HBF23hK9T++XPUceYFMttPIDDqILP1aEf4i43f6ygd2dTDPPCnyGz808+9IqfgMFZ+kwdkBHU/iU7z35SlT70iCy6uF5paQrEnNwh6bHwoal+Cd0h1We3IhSnJhhmeQeg5mKHtWN+FfovYYjWtfM854x+4+G4ckJE3DIapyA1F06qQhTeD6+3Oi4+bc5+vUQ1agi2xevLG8QK8VZY2YYwcYwgtC8PWmabABsdC0u1NtOmbI9KuLqZAZApoEJ4UhjcmO8krhCcz8K6t5j5G/1TunH+Fp284oobNBzDXT/UBIVX1j9ssgHBsFO48lXRlHozpNtp69+i47CkmRgBQ1NE4lsVzGgCw8EZgi1QDj1JV77g7PP2t42rQWIKtseO9QIhMuBS7loQtAgKOicRW2nhvcRLuhNldRlAZhUA7IVOfjMjI75Sa8QhVjY67agpVvHNSC8kH8Nn4UfJ11d3PsVefNlJJYBA0dRa2mHfQhkXjUikSyxMBQFrYgUxxeBzhg7ulaq+hqv5Dz+CM9fWmtBZT2D7sgOBJA+TYniZ6Z2OriQry2dvozQUTErElSncAwHIytS80I8L/hzRaV1NViqHnzW82mCEBEKyDSgG2qPhHBUNNHF9oynTy6Tto08KJ6VTfpQESxzJJ5j8LbwU/lqpYSc+lGXpWvHHetO0lULJawSAMyhgmEI9BUMVk+Mrt9PbCKQm4+iQ7AGDXKq9fD6Bjf80MVcvO4AqqGmDoOfnNC6YuH1R8WjX5Y1aJfbo1wARHE2gifhWyHS5yWiq1dGkAZScEgIW3wgekFXyIfjnI0LN0Q5OV730QZ0cf9PIOqfQ0VR5HE6gULnIHbMJtyYopVOUE75lxp0Bk5A9Ky1hOfzM0oSdN2nBFqtbDZNh7ur1Dsl6mm28406EENmErvXv3rP6KswZoGH2sMGJsgIa5aoWOSNtaRs8UftlfJWnnLdp9DaHtQxSyf004LbohhpFBUEQxjOM22rSoMlEfIwAIgS2YKABYeNs8KsNyKT0z7FyiwoNKX7qtjZbvfhQR43fR9HlHG9JaI6TQOoMgBGIcuZnevmtevBIKBZqxj8VruC4AnJE3TspwcBk9l98Qr9CQpi17/1UEMrPhJp9FvRcd28BB6VB5S15+CzESX6Bvpo33fCO274KqWguEZR0joRY5+4G2eVoa4fvp2eGnYplv+PvGezBa9BDaWYUp+QfkUSMbNLyIYtcZpaRp90UDqFJew0/Z/ohWvr/HLS/ox23DhWr8jnR/Ieb8WSnNxfT0sGMuw+/pLuDGpuJUegEEX4APi25FzF8Me4EdEfSI7RUDgsF1nlMFhn/EKKkVtmcNrdqzi2UT9JOOUUIJN2D0L0lp3EdPF9RxxteK3r4rF6u/MnQevl3MQN8mQZISvI/EMz4uEh7nF5q81eYA1NV7Bxj8cwHiO0eiFr4Wt8RaWv7vmzTyBDuEQZttGfp7errw6yc8y7LyN/xh88Gui1OIXpqp09gReRQ0CnH+OAInbCNwHw6NKAQgeeDIxTvHN5kABVad2NDjGAp7ax5sMEj7m0jbhOv/GVVVKfTBfA5FWVfovwFig85itBPjvgAAAABJRU5ErkJggg==;" parent="1" vertex="1">
          <mxGeometry x="137.37" y="262" width="70" height="70" as="geometry" />
        </mxCell>
        <mxCell id="ENiAY2C4UwKz_ZY1WDa7-7" value="" style="shape=image;verticalLabelPosition=bottom;labelBackgroundColor=default;verticalAlign=top;aspect=fixed;imageAspect=0;image=data:image/png,iVBORw0KGgoAAAANSUhEUgAAAgAAAAIACAMAAADDpiTIAAABdFBMVEVMaXFg2/tg2/tg2/tg3/9g2/9g2/1g3/9g2/tg2ftg2/tg2ftg2f1g2/tg2ftg2/tg2/tg2ftg2/tg2ftg2/tg2/tg2/tg2ftg2f1g2/tg2/tg2/1g2/tg2/tg2/tg2ftg2ftg2/1g2f1c3f9g2/tg2/tg2ftA//9g2fti3/9e2/9g2ftc3f9i4/9e2/9g2ftU//9U6/9s2/9g2/9i2/9g2/tU4/9g2/ti3f9a2/9e2ftg2/tg2ftg3fte2/tm//9i2f9g2/ti2ftY2f9a4f9g3/9g2/1g2ftg2/1e2/tg2/tg2ftg2/tg2/tg2ftg2/1c2f9g2ftg2/tg2/te3ftg2fte3ftg2ftg3f9i3f1g2/tc2/9MaXFg2/tg2/tg2ftg2f9e2/te2/1m3f9g2ftg2ftg2/9g2/tg2ftm5/9e2/1g2/te2f9g2ftg2ftg2/ti2/tg2/9g2/ti3/9g2ftg2/tg2/tg2/tg2fte2ftg2/tg2/uxZDFtAAAAe3RSTlMA8e/BIDBgEECBodFQz99wv+GRsX6fPq9ebo9OyYl4t9mZWBa5OPMEqR4w+x4SIssCDAYyIt0IaCQcaunNSD4EDK08FBAYTHhceuuH9/mjVCDl1UQ6wzLtHEizKACn4XIoRmIOoWwU45sKToUavbX9RCqxJjSLqzb5ctN5OfQNAAAACXBIWXMAAAsTAAALEwEAmpwYAAAgAElEQVR42u1d+68sx1FeNfOU50WyvbM7Jw/bcYyjiXPBdh7EgEMgcSRHoCCQnR8gAYxFhOwJIgoR/c+jc+45Z6dnd3qqu6u7Z6e7INjkPs7MVHXVV189ercLEiRIkCBBggQJEiRIkCBBggQJEiRIkCBBggQJEiRIkCBBggQJEiRIkCBBggQJEiRIkCBBggQJEiRIkCBBggQJEiRIkCBBggRRkPRwOO2f5HiIbvU9osPx+TVOh0MaNLss8Yk27EKqpjvGN/Uax66pLt+joac46Hj+wBxbwgTS7O9u4TXu9o3oLUh7jIKur7j9Y8sA0p5W/fWiE+wtjiEcTD5cRxhUqm6lbjTuKvBLkC64gZH6KZOTcn1+IDqVki9Bgwk8On9Z9b+0geOa3uFYqrwDDYFgt9sVhKkJ2a/kCMnEr8krFOH4t0xD2sz9G2Rab9BE4fhrietIcKw0X4CcfNY/ZfpSHW9Y/X4jgbRhKOLKBFDUf+/FPLWAuGRY4sIEsNR/Hwa85IdjwhClsgwHswrz6VkR9K8tjUUTyBrkh/fPB6Dr/z4ptJRSRS3+s/tmAWnFDAjZ23j2PTHy7F5ZQFoyM2IeChSVoUcnPlFCLTMmZqm1qDH35KU/+q+ZSTEYB/ZGH7zzBgAys1IaCqdxafjBPUkG04qZlr0Bbi3dG39sT2AAZeYFHwxmlYXHbnzQfwY5Ck2eZw+S5Hmj5Hk7VCeQdkqxqMnz5OV75HkDyR4TDwxgUZ1lfeEJo4SWLpGAfPQvu+TyLerFv4Zsvy60kAGQfC4OpgWVZGDQ0gHJ6E9oMafHKCeeZwKR+APk4hOQdVKRGIcTkMv9l3qW01z857dOCFJdr13IYEiCEFMTGb9DAeBTHE82jgMj4fEHArJawg3ottvItCyXCfCHCZ1A5q0DkDitEuVYPSwogf5kytGJyGQ3zQERrA7pmNoIA3D3LznlIWqG3TIblCOCH/g4kWoYgLt/+SGf2EsXIHAAKscUbAJqYQDs/pVmvBIfXUCCnf5Ce3NUJnCg7l91xK/TBcNbIgHVc58MeEz3ePrB6kScBbKVfzmgjtMDntRWCggARxa0eIbIu0ywM+Pzlrg1BSAQw5iGXI9kyH2DgZWpXigYXIMDAZhT0SeaK79KQoVBj1cTRCAAqv2Q2iAo3mZVuDPJfsPyAZBvpfiQQhYVbzMGVGYhD2jSfHkOE9SxjrXYYa45hmxR/7HpbmgQcq9iBPjXosXo0qM8oDYf7yBIgAi/bUYM535AFLDFvpDGAuIF9W4kSvysmcmT1J8hkdQO3oFwAp0O+4fM01Jv6gGZpWgHceJUGf5XsaXPsr0ZkdwW3oVgwWsoDrKvrMVnaIgvIKCxl/HWKukgJP2rDTws9aU1kFh0dYDtE+UkyALYZDMT/HP86Nb0P1f6MsN6p7LqBJhMY+hRPWkPTyx7uk7KAgD6NxaUG3vhxqV0tptflit6ZwtYzhyIufJM7kc5oLGe7QBOdQKlfyqDDrnwAwVWNiEAGAgkMP0bXeWZ+lEPctH9BmjrTiD6p07Oxrb0P1MKbN2wT2MLSJxk/2NpfSgIFo4aoBPtnX7m73TIfSCDnb2k7kZSC/sbXR0Oq0KdublIa7VXaaEql7kJj6vIAm38aJ2tpHY2+fuQBzYOR2BS5bVklsiYygMDIE7fka5a/y7do2MawJqRJyr6T3bBAAwbgD2gm6xY/3Mp0pb0nznPdJL16n/OALLtG4DNCSg5QsDq9Q21twZg9RVlLMDu9R3Z9g1gFU4ObgGWr2/Jtt8Sso4oB7UA29f3ZNvnglcCc2B7BErb7Xj+GoD154DQwvYvck2DAazIAlxc5BsMwLm7dYu9gwHY8wCL4/9V8AABAwQD2KoBgLb/tcEAtmoAwLIwDQawTQMA3/xVBwPYogEkqywFBgNYof5tz+YGA7AgKy4HBwNYnf4tJ4PeGoC9YyZ/YbVFCwjVwFUQQO6SwWAAxqVlbMUW4EFDiOOmJ6Wrv+0lgx60hLl9xYQpShwMYAtOLlYfDbazsNXftnArMCfVGBC3kwrkayCjNpvpLiQACxtCWocGsNu+Adj4vHSp7FO7WQ+4nKN4YACNs9M1zvSo61TAh+FQV+PhCSTTp45TAZfLE2xJ42YXnrgC8HwthxAmmL/Ez+3yBJcGYNrLiSsAZ4gvBorGUwEfVsTMcHGG8+wS2v4rThUNc8KRD1vCnHAdFGtdvFldZD4YQO1gT2Atg+3EAyNGn7NYRVva9qjAWC67S5xxwh4wwS4MQAwAOzBMMQ8EOx8MwD7SbaRhHXUEBH3ggeYMwNwFmbn8eRYng+ZCcumFAVh+y0Jl/lOcDMabcY5rYoIMgauIKLV8C5NBU4ygo6sUNk0EiJ15oeg4DJ1JL2iA2aTcTE8QVR78q+2XhvPtt4QK7NzIN0004Dy1zgf5kQXOEd4m3Kowki8l9MLoYWRgzC46WlseaKDoLWSAlpFcRCzzQV5cGjafB+J/0VYzl4st80G2GZKV5YHooS7XZnMSq7sjMj9ogFnFYGc7GOeX2uSDEj+ywNkXReY7hAAA7FZLizAg96EYLDiayLGuRaHyhJwwMgxoPJgKEYEdZsPNSH/T2F5ZyJckYNavYqJAIQMgBd9qW90hqS8YcBZa1eZtTMVzUwwsoZ4E0A0aQG78VTtE7CZkBDvjX6XeoAFkpo9TgUriCsMJXtzy4u54YbRDgztC6K5Qxkms9AZUtgjSFUhl1tgbbJ/dWegNSK2VSFYgrdFwl4tRW3S4l7v9o7TNhbRPv3b38FsjMaZEYuoKfzCgYRS4eBMItsQmv0m9SQPIDLo7+UWQuoJzs0jjDwacR4GaXzI9HE77hlmXZn86HHStwAY9ulEUGB+O+33TVMyxkKbplE3BeGp8E1xgLqn4fdeUbIVCGro/HqR44tonDDj7usCU6nC3p+4PPGS3XNPtDwedxCjZqAHM1NiWFsXEd/u2IezWhDTt/m7BHxBvasFCyBOLVF+y25aG7mfDguKJuF1pwFlvdNjThm1HrpuBXkzcDhXEt4UdTt2WVM9ptuNjQutLP+AC8UnOuqcl27iQZv+cMhKLA0irpoJiP3Q/ohHb/WG+8SzdrAHMlVdKj3S//NbldvWvenWHX9Jt2ACSoN5lKTZsAFFQ77JEGzaAXRX0uwgQt6z/qAwKXsSGm/UAhy6cf5gJdNsrBqRHSoJmJeIAvduS4z+1QaXylOFGbCA+hbivLO0xvfWz71j75X3DN83vpcieRPDAz7+nePgz9P6Pu32F9i5oX7rolud1lmWYaDrKsizP8zLEAjjqc3ZwDN7yFDvDAzfWKJ65xPwmqdTcXV5wO7lhdKoMx/UccREATj3zQUXGAc3pFjiizFzK17R5/RDZRcscK7O4WRAEyl2aJXlrtJ2pXXkoSM0cftJ0+RjTib6x6S8kCAJPvY1pVuTGmlmrU7riyG9C9XWWShSVzRfTSyj6jIvcTGPrOhEh+uEv2zy7frWLuwCwEASuwY+oyNtq+24g2mPC/rKrBUbeOgwAC0Fg7senWY3c8kj2awKEMZ7vr9p6QYmZ0wAgDgLidr64ppi+gK4lL7zDCnRNXiybtWgTQGXHMcbLOHD+8bMcb8ytWQMYOKIZdafrgK3tVcg1WUg8j1kdN6N+YC9U5DwA7ISdbVQziNyWCRxx4S0kpjXOA8ACDsk0rfiGTOCInd0ATnCyggCwEw44QMY6auys8LgF9UNigIgCsDpPIXiQ2moEePp0tocJMiMUV6x+8GwGgJ1wLy3gXqo556FzpqxmBJEOii27rFY8xLGjIrAcHUVVI0Cxi2sN50BtUUPpXp2/apNIcASWYoDA7Vi/alcQBDK1CPBySj5K1Mupeyte8KTKY1S0WAqCsSoCJPa58VoVB0ZLniMtVPtpyMk8C1aqOv4Y8PE6VQToYqCyUcSBNeQdVG2gNMsPp2rz3RftTEoxQMABOtmqEyv6o7kjdOHw1GJBZ9AZFhWG9hVjgIg9cVMZ65RwYARHMamSDRhLCSOFp5lrZ63lv5wg83C0VUlQl8rkzeb6dshUJS9ojRyIQj4oNUkqeQyICvvqbKC6UMGBc1Yz67njTvrLE3wnkEof/yqPFAJhoZACuiuKKuDAWCWPlQ8FLTISyGSjf1uoJVFU+rC5XK0cyeNAuQhw/km5pAYq1GMhCf6rWpkOnftw1ZooAEhmMmeWRDYCnN2AJP2OVxyR3OsBa1ptpU6CgANyulpbgANjKU8GYjIjOXIAa9eIFPojOfCnJjJfQsABOV6sm0k+GNUz47SWiQQEJQzIMP8l/DjObQ296gtzvS4SNziwwI0ASpFAnxqWQf9yFUmJGCAYBXO+VTGSyk4TnQjw7HUae9mABPUvW41M4Ck0XScCXALIuS7ymTcBeD1erzgQE1PqF8SACE66a12w952/uvvZDz/88Ic/u/ur7+j4SAK3zgjNjuEtGUTDAsDwT6kAQaFevdFqwLsi3/vLL33lff5vev8rX/rX76n9bQk8FVRgwPVNQJ0WTIydfmFGROAksArK/dZ/fPFzxthw8T/s51/88FsqL1KCEWqFWs0GY4HEqP7VO5EI7HNUiG1A7371Hx6Vf/+/4/88/HeMlf/1rrlUMMYuZkBNQMkCYB6m0SAbOpBe5+2QyP7sH7/x8OeGy/P/aAYP//rGj2VfpAW6KIqfygA5eoqnHUTCOYZQAQIOSLIK/Ns/YlOFc+f/+V/ZP/2jmVSQmGhnyEFALTfh/4luHb4EYPscqRH8vb9+Ov1PFjD1AOd/Mvb795BKArVa4iuVhlADUQCif6qdg9fLX0TgAGRe6Udf/flY3U8hv380iZ6zigdA+NGP0FPBFhejjeJAiW0BiWnvv+A6YwASkSkCvPsvz7H/QcX3ij//n5EZjILEH/8O5YPly2+LQGbVBNUCCgMxRQo90eXoKpEC/umv/vB8uPuXun7U9vhfXprCCAr84YQQzUYuIDfZzxAB8gFwsrnM/2E1HydLX61FwLXpG2wC+/onlQ/Puu/Pf/OTQ2Ds93+LkApSMySAghOAcoJpaef4i2JnvcgBgZHzN1590n9/toJn5T97hCdccHYEA2OvfgOhKhjJ8V4GnUCZar4KfrMRFadPjb4NfvvVYWDjTP98wPszK9CPIMHZGAYJC4iWXEBrvp656ARAzNkSAYDabpgJI7zOCO6T/quR2x/GYb9nYxDIW0T/BBeHV7+tT5xEQMCrL/ESLQSwtgIzm1iWSnRsKu2nePu7zyTv4ynvGa/9cVY4AgDD0y/839vaqWAjgoC494Qutm8U6q+hXVuUo1AiUW4F/Wp/9uIZ/A88yjtr/lwI6HmK4PGPfuUdTVbjpTsjlloaF7aPLLrOFgNFYFABueLgzVg+aEaw70wAsGck0J+Tgp5NXcOTBXz5A01vdu8CEt1YBg8DRAcGFNglBWUqoBLwqw08LA/cgWaTBIADBM9AoeeiwQCGaYnAYBt7LW0LTdyFegAw0n83a3IJ0XUAP53k/WcIMDzH/zEMOAeGsyMYZDL1cr5BWzublQECpXIQaC3CvyXHSXQd0bc+ZmPunwP7131Af64KnBHiMDAC7BOZpy0qq03t4vIQVXkBgwMY8rewwE7Nn7x4xvL9SMsDT/YN07zw8deGUX1gYC+AQFB6dZapjyq0gEzp+Y0N4EhvTQQ6gA9HBOA4B+Dce88lg5w9DGMY8DUgAJN8FWLqowotoFFBgAYHsCQnX4G4+c/fHEbZ/DPk76/E+TP3wwWHcyrA2Jt/g3DyDHLqck+SyaYxZgfwCiMf7a2BO+L9hADor2A97tcmAYEacWcmN5sILKCSzWK02u818mcNBxBfNH6NCICRGxi4egCHFTnzGIC9olJz1GZ321HZ81xazf9VYWAiEVemReCLCD/+v4xjiqepAPtnXULYXCFYPhss5VKA0vD8lYzfBHZQf2d4LvH1lzFgmgj23I8YOYVRx1j/A3RrNr3aRjBSGct4DGJ8B1eL7gA+5XA/xwFcMIIjnqAf/QsPH8BuUMIFGN9tlcn49NSRo5KDgVAH0I+a+6b9P+OiQM93BY7QQs8m7SP4LsD8YGsu8bNrN0hFEgYm0BefYsDhbAT91bJgP24V7rl48GgawAObQl/Gxm6jBg7rS2vlKo1TA2VOq5EiB067ZxVPEOEEJbz0EsP5jw7sVe2akGpXq0ZpEAwDIxcMgDQMBH6zb14WgPrRAMAYD/Csz6gxnC8TPPiQGNWflTY+7PzRgl7HamkFD0V1AB27Du77kUkMI15gzBb3l7/lKYZ0qC7AznKr2YCUAIG4pSWMMarTrIZzHn9uCBpm8oELl9Azvlrw1E4KTtuqFeSAS9Y4hXbEqQOA1dEaiYAy5v8mIG8UB4ZzXOin1OCoGvDkICJEF2Btv3EFqkNlzlJAiW8GdQDJ8JzND6MKTz8+8D3XCzYwvh+4n/aIvfzvEzwXYG+5UQ36montcqXCNwN7Izqp/47D/8B1CXMNQpddgcMYPw5seA3PnO3tt51jphJIDcPiErYcL216ZeTw+wny55hhdlEM7C86hcY48Ct45mzxhoMOEoMa80MLuhQqHI6QaU2Xy/z5HtBh0g5wxgA941DD/X8IWkSzud+0gDwCcR0BljNBsAP4yUWlp+eqwRw25BpF2ThOsIt+goH9BMsFWN1wDwnv7lhgKBkEPzPZiO8d2LQh+Knt83Im7NwxxBUCRsFiyJBcgN0rLmbcOyAJyNfwnNJn5vXxuFc/JvaGi8Ygjh7iGgP7CS/88De9jgRq7W44z5fje7YCRyWuCUoEze8PjCsDnvcCTXFffzESMKofjMuET3/2+zh5rdXQCtLuKgxAeGgkHuXDcRFoGDWFDDwW7EfLgfg64TCFj0+e5Gs4b5PfigFY3sSc4KDmjy5SuIumkElJuL/IEq/VhAY2fITzNpZvuYuXDSBZhgluM0EZX/Qav/llGCd1nFIHDiMO40TxslD48I/XUBya9XuOl4HIOgwAvHFzwQAGfhB42gFyPtrDZRbYj6DiwPj1AQOSAVjfcb9sANkqXFWEFAKGaWPnuSjARstgBs7bXx0i4gfKBoYUApJVfNf1gcAcBwR+7UztTVIBvujPpqT/tDu0n0wOseFDHBBo+abLW8kChGSwhAuoBzZB+lyVj+sHnTaH97yNDIzfIYmUBlq+7Byg3djFQJAceSZDBA0TSHdZ5RuuNobym+P5isKDQyhQHIDtq84ARNBuDc9ZIVHBMafWUfgf74UbA8B+6g76K+qXLI7lqykGgqjguYagFTgqeReQPhN5/ZV5n2H6K1ypeJiWiIdxajCkKOHM9nW3kEpf4x4ELDWFwV3Ax2O096DwiynA0Rqw8bbwqxtlzpOl72M5AKuZYAz5nrnzhpDlznCJhpBRAyAP/PlZwMn0wJgU6NkERt7/83MsB2CVDaaQJ0icG+pyYzjYBXzKpfv87P+kDaC/nB+8WCF97h/4EpYDsJoJglrCMuY4D0gRm0JfH6Y5/jCuCE3aAIbzCecbwrlK4oOXKNAcgEUyKIF9TeLYUCHDYVAX8PZoDGC4+FsuEGI/+dWBgwjjgPHvDl7GVHJFgB44cfuYai7gFb7De+DHvrn18D1XAZjsihz4XqFX0OCMxX5L6GDI3O+rUqePqXZqPrrW59Pz/aEDjw3GQ8T9NeqIMXAlADbnRt2erAQag+3AVeAd1UAXEDOe9+kvGcCBKxENkzUBPGv8FAdiTAdgiQyqwQsCSpeuKgN+M+hE7avX0vpJ60/P8zx8gWDgC8EPlvEKqgOwc7Rmt8SUcFOxgVbA6/WgCyIGvsTHcbs8y9tfjAZxq6NH//wQ1wFYAdgSCyLmUxfzlgrfEgX8aL8eLvY/Dde2Al5LFTinMKKEh/eQjdlCTXD+8oBU5sGNE8ISm7WALuCtgV1pBuET/X6UCfSTnSC803j497dwo5mN1rBYCoHOH0Pja8IkNkUCXcDv+qnPv3ItDLtWFLqEBo/IIdZ0uvZhYCq3Jk7w6IYXBUrtigW6gDe4O2J7/n4ANuWKew4DXCQD9/J1dAdgPLhKLooU5eJmc1apbdHA8kQ2WgkwnQAb+PnfST14fPpHuwQyfAdgGAZKr4oVPbxJC5BcsAw8Nl8eJrfDXfYBsvHV0dNJAr5aNLQGnJlZGCi/LFrovgxaQCf30YAu4JM3L1o+hvEwwMD7h/PcwJUiYc/e/AQdzRiGgUodtq0TCyByHw1+YcQwDvADm9wdcK1LYJg0CveSVdFE8lXMwcBEiVGPXHDX0h8N+NU+eHGl94Mf9blYCzVc2w4ysOHFB0YcgDkYuFck1IXemJrJBeaQR6VriveXRvFs7qjs0/PTY3wNcDgPED38wseRrtsldmGg6qVRC3tujWSD8xeqNbrM1OsDX9Xp+d2/k06Afjo5fg4IQKw2n3eTxCoMpOoYSpzGlpG9h20EzwItT3w6Lu8O15aDc9UfvgvgDAGgE4G5wNNX9mBg2uhkHmJIjn518PypSURpKdAFvPP5tLjP+DrQxXL4aznA5+/oOoAqFd6RjMz/VlqJx9Ky85MlCFgJMSk0dP7oxcD4th8eEo5GhXvuBtHhvG/+xY+0HW8ivCMZ+YMSzSR6ictscYFAKfouVLul8u1XL489PwDYT3z/MGkF+y70+vgFc6V2YOASqQLAHPUSf4kZBmKhZ4z0Byve+8UwugeUXxowXMwHX/QODL94D/oqC8sNMhu11mips6rTc2WPH/9k3mDbZVgFlM9eTC6P4+4SmewI7Kdm8uIz6M9ZhKyVeX4lWeLUWj23fH4lNORCxJ5KUNAEP8Jvvjy9NWI6K8rtA+B2i3/xG2064/mI16anxNLFoho0j1+ea8ByAsVSYMwRiMkPPhoufftFx9DFFfM9Yx99AD98i6dOlO9gSLZIQ8JzuHiZnsdxAu1ix1qF0af0y4/5fV/TiwD6yZjAyzDx8W8l3qRadlXUJBWQAmrqEqQT4AIPDCeQLnesJSijNZ+8uLg8anr2x32CD//+4hOJH1ADPFVskAo4Yg+jQSo0pTZ+rQFnokR5oQ/qNwfuVvieTRcB9dz//+av3pGxZAJJVypwh64s+Ie0oUhGGlCNTrc8VAJ8VYbUT/PZp8Ml0TfdFPPsGz79TOovh2Urtea0w5z1gRoqpJEGyALI3kQdiADza0kS7d0v+H7Pgd8QPoIDX39X8kVEJDAg4mkxKydQP4UC4Qir01cacaADsRWI3crf/ILrC5leEPEY/L/+TSwsOz13rQ49M4P9YUN1SmQDsFOjUTaBCnYgcsTX+t/P2TQS9ON94L2C+kX3rsOyXuXt4RmwB1Ux04yJURMogCERaYXwk/z0rfcn+x+fSwXv/90vMQ358vkIaldABG1BVmYaoBbAqEomQ6GgGCcVHMn//Nt/vsLPiTD2F68df6D2t9Xwx+sQPXQEnUEjGlE6Ao5tq5gAgATATQUn8uvXP8wf5cO//28NEC4xfxPD33npbIJHEPV6OFL4oAOVNDTo6gphkLW+eFumdkbhia+kIWdwtZS6xVuJrn05LFBKxEO0VBBfYqkkRcLq5+VOYvwIoX0jkejbb47aEYDIMAb2V9pLVAFzvbg3992OMr3nKFveYpmfWJ1SvQhAJam21q3+E8no1OrFgKiTGaMhSM0mqdz0JgwPtlIZEXIqiCaC50p0kc+V0C+lCMwm7lpufAsQCVJJgn/+pFUucWAnW6lQjwHRXnLuCBUexaXcD6/2kZrr7OTZFoc4UNBBm0kmDQsx4E7u8Otx9JJReM6pHVUiQKzwrd3hwFKeoioUYoD04Udv3t6BWo4u0EAXY0UAIdxuXOk/ZwrIhEjGgPTYMOkvb2TiLO2kH4SVM0lBIu/OI5ReJ0yZrwKLuF25GJBRIv/VW1M+URYJPIaCFB4BIiXKzREf2ChFpQzeFhJ3lcIHr0yeh1rBHq/AgVSlN0aQcnUu9F8oAvAKZjRq2mesM3saolbpqQi9g0SAWrHsZmv1NtAexR6pA7y8qvZZY/5LFIqPRuhduuTNI3TQ7YICWEjp4iX3d0cVPzEjdi74yIni87H2GImQ8FJ3ZGaY9EaiAJasURQDomOr/HVZbgsLqeQD57wgno2ei1ps8foDdT9BpR6PZmPAoSvVP6xaV45lKPAIU0tVRkeQeDWrCQCLiDRmBqSxXRPJGvR3APTH5yshAwQBAJCTVuifrnJBhaCbACSOV6sgA0QBINFyH2rqT3ZuBNkEIr2jZ/E61pxphaJ4G+rHNgHYhFSrwr9jM6KaVowZA5yqH9cEKIjDEOBAa50BpW4RvtuM+nfyfSoiHqPZH1IN99s5DwCAgdXobo91Zppstw6JKGZIo6dY1X9mrgPAwgMcTi2e96fxbj2SqrOD1/EAPc36AgEOtBIESiUcejjREvEDkTzarUySkiFL1ezvrr0mdRoEclkKIDrsW+TMv0rS3Qolo8yANO3+LobW4cwHAVEAmLIx6eHUNQT9i9Bst1ZJ64qZkbLdH5+DQu0uCIgooIY79dSA6u9fsE53qxYzbmDkDu7toHQWBAQJ3EM9Kjqc9k1p7P1XfPhH1l+XzLBUzFEQEG1SLk1q/uXhj3Y3IlFXMVdiMgik7l6L3MTh50IBcfSpOicBwKw0Sbq7PSkc2UC33x8PhwPmyT8cDsf93pH+y9tx/Zc20DKXQpp72d/LvUm8FAGB9vx7Dg9/pnv4407f4Ka1//LwJC1hQTzVvuNYcNvSJtvQ/pMNVEGlMpj/JlHfAonalUGzIMffZbuNShRMYFn90W7DEuLAMpG1Zf1HQb/LsmUPkAT1LkuxYQPognqdUtnOZQYDll5iw7m3Lrer/7m9EPFul+WtRwCxpHU231yUbtYAZqaCn7bDplnebJ4ybLr6OcsnvoGAmX5KbkNaVOTNZnWf8IWomUpZvlkDmNHs5VBolOV0S2bQ0Dy7kt3N9DyGgCIAAAi/SURBVDY2mzWAeQhwnTXYgBmU7VXVP5LjM39oq/qPxRBAZAa3Bw1IQ/Mixj0Rty41AALMSpbleXML6WLVdHmRacXEZKMGQKEQQJRJZslaHULZ5Hkmd3hnUDHdqAFUiA4vzbI67xr3plA1TZ4XmZrXLryiglIzkOfBFBxgxSavsyxd5SdZqWQGkx77Dfs44wczj73NhpDcJO0R2zYAHKSOAYtuRlqj1i660KK8TybvpXi6KpI2F0Kffq14+K2RcBEAFltX+4QCK7Oljwa7wiqqXWORdZlHXUGp4XcVbQ1Qqa+ImlfwdhJ6VBDMdGggjR/wUmPSITtGtqcZKf1BgUYx4KLPLiXPVFra6dnxCAVS87YuUhpFeVp0nsYjFFiaj3aRyG3XCHpRDCfycWuLXKANvJsgZe5CViGx8Fk2yAXGVpofKAp0FyYU1Ipj3F5FOLHS/iTEbqWmUhAp4EV6bHsV4dzOiwqdN9V3I+hHM7dyMFYgjaWEt9YO30IggZ6fZVZC43qTAGvpJvj8Cn1Ii/64qS9pgDXSWwgDloGgMJU0sYKu8iMNiOx5OiGJu8QIis3HBDafiY1bmxHOLA5CFhpAkNpjAB6l86MaUNvkvDtlGFczewyAOA3YWjUgt2rnwhbBQtF3lFZ949byQLuRTkjlzUdyIXowdTlt7EceWNrFurFKP6fQbMzN7PqRB9p+S2Ewv54KCBMAgy659CIPtO7nqDScE/4Jg0/a+GAA9pGO+Dx3kqmDyUsIvMgDHUBdIaV3mdInFqYA1pAgOZLEwTKUQkalGbPOAC0857YKwk6sPGfgZFCYABru0POCCMidEN4UGtbFCaDhjCyyyJKvjQcy/FPFQPCcDIp/n/H7aH1gghqV5TCGGcHnky3WPzHenkc8MABX7ygeGqaASGFha5+j07FtHgiW3dFl/eeu3CPzwABaCz9ZvJ+6XiCNrYzotN4agJVMR3xxXSJ2EaWNMd18+wbgMtVNNXbLEStj2h5QgU65jkh5kxixM5/jrwFYekXl/UGJD1/Hh1dUvKmm2wUD2IiToyr6bx0fjzwYgK1UwF0C4LkB2JuBlk8F7OnfYwOw+ASyq0SJzQH9YAA2UgGyWv0HA1hfMmj33qZgAGtLBi23YwUDsCP12giAYACWBUgHWF/SFwxgVXSA/VacYABrogPKNBjAZg0AQAdUDhZ1BwOwJ9mSAbgowQQDWFEMKIMHCBjA9lOFaqAliUEFgdL2nt5QDralf7LGQkAwgLXp37oFZNsfD15D05NMOdCuBfjbE2jTxrP1loPr0BZuXqT7Qi0ap/N+KQ8SHYW+4MS1Aey2JI7LLkp94SdbT9cEAzAsSl3h9srCPoyHl7ZuC7gWfxT1zxi1QwpW3m4IseLldIZD7dDCPqyIaZ1lOpGG/hkrLdzbYPMqhbVRgeabb2PCtMQCIVD4sCYucfSSiab+GSOJo8PhxapY0/OX++VsfzlD3LsJjxu7O5S5SAMohO1JXCcDflwbNuOKTX5aAPxPYCyR0WQgZQ5TZOd5oEEUCOj+SKA8oUkoWPiQBc56Y3MoEAD/nuHdcqXQIBTMfcgCZ0uexuy8kzrVgGSRbsc3rikNMAQCAOFfZl28SSAwAwE2d3PozuYcNkCd06gelY6AwAwAIVvT/5ynM+FZTyokP6RkYKJATB1vqLImnS1LT1um5M4hf67BDwPEByJYlGthM56Q3r82VeSNGMF+3GJFE2pmJbKDrpfJX8GP7AB/GJkYpsw+Q+ZISguvGjUAFebybooLA5j4PGW+QID544VIsZwgtb9EN4AQRCw4Z3H1Bg1gjglAu5MLguIWcznQ+CAeFix9YQEEeBcL7xSQ4788+AnqICNI9MUcBKy2qP/ZBT0odHAEWv8DYvNAPaQtyhmtVrKmzG0iiOECQNEfmnHkoE6hk8EvUmzSAFJmCgXEEPAvgaxgjWT6ewQqryKAwLfq0V7pHqR+GQ4HtkmCdXpgMGdeRQDRgiadgHqE9X3KndcUdsEAORqgxjaaA4hcngYOzIBt/22KdTwndqUOYJr1bKq0JTn2dt4IOvWlEGQKYEe5aj7QrWEy3bJEuMPYYPWrpe0xdKaIqpjAPOtM0s0agCjFjo2pX3m+Cz5VKm8CMaq32oILkDylcPXrYGr4YBGVM2BBfNmyAxAAH7kokDVg9euxtjF8tLSRgIMJ89MBLKzqBZba06PEwK/ueK/McoHqBDy8QuIi2rQBCF0AKFfPpNY9IFAqUvOl9E7Xq9Bt639pW/defIYOndTtbxVKoTFqpH5md9DhLbeNAHbLbVdkP+cC0zsqOevdYn3MXO7nEno395OjPUGqV9yspItaLE8XNhAdqfSiD4JYUovlLx6lx4t4Fp2Wl9Xvti+QvjvSdPvDgxz3+0ZpyQtq694u7VSeoWz2++PL99h3DcR/ZR4YwK5h5oWgu9KssvDY1Af9a6/tsX78H51Abvyxq9QLA1Db2+ko+ushAUmJd55IZ/QztubOkVknUO+8EYNHqTKKoyKDAKb1R/+7yBQMIMaZdGNgsEw9MgBTQLC1QaTnJOh/nRZQWsqiYTMIkq4r2u2CBegFf4udVBk2FCDxzjtJyG0Ff5NQwEf9o/oAktuPoAmeCZTRzktJkbJB0rn5gFgm0KQ7T0X9Lg/Hpx/VBOjOY6nJDav/wQR0vRgpdl6LHrVWrmCGItNKCtt057sUyk6ArgQ7R8rUkO/H/xEJKNWGqnpNZydRcmRdOP6PR0gWDFbd6hLnqJZFAzQKmlfyooSutHEqluhZJnlQ/yQQJCAw1eSrJs2iGvQWbRKc/7Wvl7RCP9B0xS18tyIX9n+SoH2hG03oFTxVNTSJb+s1uuZKPLi113AWDrKszp+kyG42WkZZ8fwadZaFgx8kSJAgQYIECRIkSJAgQYIECRIkSJAgQYIECRIkSJAgQYIECRIkSJAgQYIECRIkSJAgQYIECRIkSJAgQYIECRIkSJAgQYIEUZL/B+9TZWEP0hxXAAAAAElFTkSuQmCC;" parent="1" vertex="1">
          <mxGeometry x="558" y="371" width="76" height="76" as="geometry" />
        </mxCell>
        <mxCell id="ENiAY2C4UwKz_ZY1WDa7-12" value="" style="shape=image;verticalLabelPosition=bottom;labelBackgroundColor=default;verticalAlign=top;aspect=fixed;imageAspect=0;editableCssRules=.*;image=data:image/svg+xml,PHN2ZyB4bWxucz0iaHR0cDovL3d3dy53My5vcmcvMjAwMC9zdmciIGZpbGw9Im5vbmUiIHZpZXdCb3g9IjAgMCAxMDkgNDAiIGhlaWdodD0iNDAiIHdpZHRoPSIxMDkiPiYjeGE7PHBhdGggZmlsbD0iIzMzMzMzMyIgZD0iTTAgMzEuMDMxNlYxNS41MDI0SDMuNTQyNThWMTcuNDY5OUM0LjQzNjM2IDE1Ljg3NTYgNi4zODI3OCAxNS4wNDUgOC4xMzU4OSAxNS4wNDVDMTAuMTc4IDE1LjA0NSAxMS45NjM2IDE1Ljk3MTMgMTIuNzk0MyAxNy43ODk1QzE0LjAwOTYgMTUuNzQ3NCAxNS44Mjc4IDE1LjA0NSAxNy44MzczIDE1LjA0NUMyMC42NDY5IDE1LjA0NSAyMy4zMjYzIDE2LjgzMjUgMjMuMzI2MyAyMC45NDkzVjMxLjAzMTZIMTkuNzUzMVYyMS41NTQxQzE5Ljc1MzEgMTkuNzM1OSAxOC44MjY4IDE4LjM2MzYgMTYuNzUyMiAxOC4zNjM2QzE0LjgwNTcgMTguMzYzNiAxMy41MjkyIDE5Ljg5NDcgMTMuNTI5MiAyMS44MDg2VjMxLjAyOTdIOS44OTI4MlYyMS41NTQxQzkuODkyODIgMTkuNzY4NCA4Ljk5NTIyIDE4LjM3MzIgNi44ODk5NSAxOC4zNzMyQzQuOTEyOTIgMTguMzczMiAzLjY2Njk5IDE5Ljg0MTIgMy42NjY5OSAyMS44MTgyVjMxLjAzOTJaIi8+JiN4YTs8cGF0aCBmaWxsPSIjMzMzMzMzIiBkPSJNMjcuODU0NiAzMS4wMzE2VjcuOTI5MTdIMzEuNTU3OVYzMS4wMzE2WiIvPiYjeGE7PHBhdGggZmlsbD0iIzAxOTRFMiIgZD0iTTMwLjA3MDggMzkuNDg3MUMzMC45MDMzIDM5LjcxODcgMzEuNjUxNyAzOS44Njk5IDMzLjI0MDIgMzkuODY5OUMzNi4xOTMzIDM5Ljg2OTkgMzkuNjc2NSAzOC4yMDQ4IDQwLjU5MzMgMzMuNTMxMUw0NC4zNzg5IDE0Ljc5MjNINTAuMDA3Nkw1MC42OTQ3IDExLjY3NDZINDUuMDA4Nkw0NS43NzQxIDcuOTUwMjNDNDYuMzU5OCA1LjA1ODM3IDQ3Ljk1OTggMy41OTIzNCA1MC41MjgyIDMuNTkyMzRDNTEuMTk2MiAzLjU5MjM0IDUxLjAwODYgMy42NDk3NSA1MS42MDM4IDMuNzYyNjdMNTIuNDI2OCAwLjU3MDMyN0M1MS42MzQ0IDAuMzMzMDA2IDUwLjkyNDQgMC4xOTEzNzkgNDkuMzc4IDAuMTkxMzc5QzQ3Ljc0NTQgMC4xNjY4MzEgNDYuMTUxNCAwLjY4ODkzNCA0NC44NDk3IDEuNjc0NjNDNDMuNDA4NiAyLjc4ODUxIDQyLjQ1NzQgNC40MjQ4NyA0Mi4wMjMgNi41Mzc3OUw0MC45NTY5IDExLjY3NDZIMzUuOTIzNEwzNS41MTE5IDE0Ljc5NDNINDAuMzM0OUwzNi44NTkzIDMyLjEyMDZDMzYuNDc2NSAzNC4wODYxIDM1LjM1ODggMzYuNDM2NCAzMi4xNTEyIDM2LjQzNjRDMzEuNDIzOSAzNi40MzY0IDMxLjY4OCAzNi4zODA5IDMxLjAyOTcgMzYuMjczN1oiLz4mI3hhOzxwYXRoIGZpbGw9IiMwMTk0RTIiIGQ9Ik01My4zNDE2IDMwLjkwNTNINDkuNjQwMkw1NC43MTM5IDcuNTk2MTZINTguNDE1M1oiLz4mI3hhOzxwYXRoIGZpbGw9IiM0M0M5RUQiIGQ9Ik03MS44MDY3IDE2LjQ3NjZDNjguNTc2MiAxNC4yMTYxIDY0LjE3NzggMTQuNjYwNiA2MS40NjQ5IDE3LjUyMTZDNTguNzUxOSAyMC4zODI2IDU4LjU0MTYgMjQuNzk4NCA2MC45NzAzIDI3LjkwNDNMNjMuMzk1MiAyNi4xMjQ0QzYyLjE5MTUgMjQuNjMxMiA2MS45NDcxIDIyLjU4MTUgNjIuNzY1OCAyMC44NDcxQzYzLjU4NDUgMTkuMTEyNyA2NS4zMjI0IDE3Ljk5ODcgNjcuMjQwMiAxNy45NzlWMTkuODczN1oiLz4mI3hhOzxwYXRoIGZpbGw9IiMwMTk0RTIiIGQ9Ik02Mi42MTc5IDI5LjQ3MTdDNjUuODQ4NCAzMS43MzIyIDcwLjI0NjggMzEuMjg3NyA3Mi45NTk3IDI4LjQyNjdDNzUuNjcyNyAyNS41NjU3IDc1Ljg4MyAyMS4xNDk5IDczLjQ1NDMgMTguMDQ0TDcxLjAyOTQgMTkuODIzOUM3Mi4yMzMxIDIxLjMxNzEgNzIuNDc3NSAyMy4zNjY4IDcxLjY1ODggMjUuMTAxMkM3MC44NDAxIDI2LjgzNTYgNjkuMTAyMiAyNy45NDk2IDY3LjE4NDQgMjcuOTY5M1YyNi4wNzQ2WiIvPiYjeGE7PHBhdGggZmlsbD0iIzAxOTRFMiIgZD0iTTc4LjA5MTkgMTUuNDkyOEg4Mi4xMzU5TDgyLjk1ODggMjYuMTA1M0w4OC43MTc3IDE1LjQ5MjhMOTIuNTU2OSAxNS41NDgzTDk0LjA2NTEgMjYuMTA1M0w5OS4xMzg3IDE1LjQ5MjhMMTAyLjg0IDE1LjU0ODNMOTUuMTYxNyAzMS4wNDEySDkxLjQ2MDNMODkuNjc2NSAxOS45MzQ5TDgzLjc4MTggMzEuMDQxMkg3OS45NDI2WiIvPiYjeGE7PHBhdGggZmlsbD0iIzAxOTRFMiIgZD0iTTEwNS4wNzIgMTUuNzY4NEgxMDQuMzA2VjE1LjUwMjRIMTA2LjE1MVYxNS43NzQxSDEwNS4zODZWMTguMDE3MkgxMDUuMDcyWiIvPiYjeGE7PHBhdGggZmlsbD0iIzAxOTRFMiIgZD0iTTEwNi42MTQgMTUuNTAyNEgxMDYuOTk3TDEwNy40NzkgMTYuODQyMUMxMDcuNTQxIDE3LjAxNDMgMTA3LjU5OCAxNy4xOTA0IDEwNy42NTcgMTcuMzY2NUgxMDcuNjc1QzEwNy43MzQgMTcuMTkwNCAxMDcuNzg4IDE3LjAxNDMgMTA3Ljg0NyAxNi44NDIxTDEwOC4zMjUgMTUuNTAyNEgxMDguNzA4VjE4LjAxNzJIMTA4LjQxVjE2LjYyOTdDMTA4LjQxIDE2LjQwOTYgMTA4LjQzNCAxNi4xMDcyIDEwOC40NSAxNS44ODMySDEwOC40MzRMMTA4LjI0MyAxNi40NTc0TDEwNy43NjggMTcuNzYwOEgxMDcuNTZMMTA3LjA3OSAxNi40NTkzTDEwNi44ODggMTUuODg1MkgxMDYuODczQzEwNi44OSAxNi4xMDkxIDEwNi45MTUgMTYuNDExNSAxMDYuOTE1IDE2LjYzMTZWMTguMDE5MUgxMDYuNjI0WiIvPiYjeGE7PC9zdmc+;" parent="1" vertex="1">
          <mxGeometry x="117" y="485" width="109" height="40" as="geometry" />
        </mxCell>
        <mxCell id="ENiAY2C4UwKz_ZY1WDa7-24" style="edgeStyle=orthogonalEdgeStyle;rounded=0;orthogonalLoop=1;jettySize=auto;html=1;strokeColor=#0000CC;" parent="1" source="ENiAY2C4UwKz_ZY1WDa7-16" target="ENiAY2C4UwKz_ZY1WDa7-7" edge="1">
          <mxGeometry relative="1" as="geometry" />
        </mxCell>
        <mxCell id="ENiAY2C4UwKz_ZY1WDa7-16" value="&lt;font style=&quot;color: rgb(0, 0, 204);&quot;&gt;&lt;b&gt;/Retrain&lt;/b&gt;&lt;/font&gt;" style="text;html=1;align=center;verticalAlign=middle;whiteSpace=wrap;rounded=0;fontFamily=Courier New;" parent="1" vertex="1">
          <mxGeometry x="651" y="325" width="60" height="30" as="geometry" />
        </mxCell>
        <mxCell id="ENiAY2C4UwKz_ZY1WDa7-25" style="edgeStyle=orthogonalEdgeStyle;rounded=0;orthogonalLoop=1;jettySize=auto;html=1;exitX=0;exitY=0.5;exitDx=0;exitDy=0;entryX=0.5;entryY=1;entryDx=0;entryDy=0;labelBackgroundColor=default;strokeColor=light-dark(#6F0B0B,#EDEDED);" parent="1" source="ENiAY2C4UwKz_ZY1WDa7-17" target="ENiAY2C4UwKz_ZY1WDa7-7" edge="1">
          <mxGeometry relative="1" as="geometry" />
        </mxCell>
        <mxCell id="ENiAY2C4UwKz_ZY1WDa7-17" value="&lt;font style=&quot;color: light-dark(rgb(111, 11, 11), rgb(237, 237, 237));&quot;&gt;&lt;b style=&quot;&quot;&gt;/Predict&lt;/b&gt;&lt;/font&gt;" style="text;html=1;align=center;verticalAlign=middle;whiteSpace=wrap;rounded=0;fontFamily=Courier New;" parent="1" vertex="1">
          <mxGeometry x="651" y="461" width="60" height="30" as="geometry" />
        </mxCell>
        <mxCell id="ENiAY2C4UwKz_ZY1WDa7-20" value="Backend" style="text;html=1;align=center;verticalAlign=middle;whiteSpace=wrap;rounded=0;fontFamily=Courier New;fontStyle=1;fontSize=14;" parent="1" vertex="1">
          <mxGeometry x="382" y="210" width="60" height="30" as="geometry" />
        </mxCell>
        <mxCell id="ENiAY2C4UwKz_ZY1WDa7-21" value="Frontend" style="text;html=1;align=center;verticalAlign=middle;whiteSpace=wrap;rounded=0;fontFamily=Courier New;fontStyle=1;fontSize=14;" parent="1" vertex="1">
          <mxGeometry x="688" y="210" width="64" height="30" as="geometry" />
        </mxCell>
        <mxCell id="ENiAY2C4UwKz_ZY1WDa7-22" value="" style="endArrow=classic;startArrow=classic;html=1;rounded=0;exitX=0;exitY=0.5;exitDx=0;exitDy=0;entryX=1;entryY=0.5;entryDx=0;entryDy=0;" parent="1" source="ENiAY2C4UwKz_ZY1WDa7-7" target="ENiAY2C4UwKz_ZY1WDa7-13" edge="1">
          <mxGeometry width="50" height="50" relative="1" as="geometry">
            <mxPoint x="1042" y="410.9999999999999" as="sourcePoint" />
            <mxPoint x="1051.96" y="267.65" as="targetPoint" />
          </mxGeometry>
        </mxCell>
        <mxCell id="ENiAY2C4UwKz_ZY1WDa7-31" style="edgeStyle=orthogonalEdgeStyle;rounded=0;orthogonalLoop=1;jettySize=auto;html=1;startArrow=classic;startFill=1;strokeColor=light-dark(#6F0B0B,#EDEDED);align=center;verticalAlign=middle;fontFamily=Helvetica;fontSize=11;fontColor=default;labelBackgroundColor=default;endArrow=classic;" parent="1" edge="1">
          <mxGeometry relative="1" as="geometry">
            <mxPoint x="369" y="445" as="sourcePoint" />
            <mxPoint x="232" y="505" as="targetPoint" />
            <Array as="points">
              <mxPoint x="369" y="505" />
            </Array>
          </mxGeometry>
        </mxCell>
        <mxCell id="sa8KiKjpAbw4O3BdEmPC-2" value="API Call" style="text;html=1;align=center;verticalAlign=middle;whiteSpace=wrap;rounded=0;fontFamily=Courier New;fontStyle=0" parent="1" vertex="1">
          <mxGeometry x="462" y="383" width="60" height="30" as="geometry" />
        </mxCell>
        <mxCell id="ENiAY2C4UwKz_ZY1WDa7-13" value="" style="shape=image;verticalLabelPosition=bottom;labelBackgroundColor=default;verticalAlign=top;aspect=fixed;imageAspect=0;image=data:image/png,iVBORw0KGgoAAAANSUhEUgAAAgAAAABfCAYAAACeP3/xAAAABGdBTUEAALGPC/xhBQAAACBjSFJNAAB6JgAAgIQAAPoAAACA6AAAdTAAAOpgAAA6mAAAF3CculE8AAAABmJLR0QA/wD/AP+gvaeTAAAAB3RJTUUH6AkCFBI7QwoL7gAAKFpJREFUeNrtnXmYFNXV/z+numcDBFQEXAFR3FFE9HUXl2j8ucaIcQeXDDMDKAjMYkz6TYTpAYMKTjcTVCIuxBGXRNFg1IC+7opLoiggguLCjsgwW1ed3x894gZa1dNL9cz9Ps88g+OtqnvPPfee713OOYJfEZ2yO059P8TaF7X6Yek+wI44dALthCVdUCwghurXIJsQNqOsx2Ix6BIcWYzVsJii0GoMDAwMDAwMtkJ8U5MZk/vQbB8LHAP6S5Ddk9jKL1BeAn0WJ+dfjBi7wnS9gYGBgYEhABlb5U84GLUuAy4E2TONX16M6oPkBu/j2nEfGzUwMDAwMDAEINW4Y+LOWFwOchlI/8w2XxV4GbiPuuBsxo2rMyphYGBgYGAIQFJX+6HuUFCI6iigiw9lsQ6RCPX11YwJrTeqYWBgYGBgCECrDP+U3XEayxC5EsjPAplsAqI0NNxqiICBgYFBFmLy5I4UNO9OINAVx+mK0AXYEZWWf0sANAek04+totaj0oDyNeKsQViDBtYScFbwRcNKQiHHEICfQygUpHt+EUIIZYcslMx6lAmsbqhuSx3+84QtfBvKcVndBpW7KSmNmFnQoN0iEv4T8EtXZW2GMbLsP1nXxprwXjQzANEBwD4Ie6DSA2EPoFOKvtoILEP5AORNAryG6GsUln3lk/n7NyhjXZZ2gqlRvonHgzUVOAjNViPCTsCf6Z5/CdOrRjK89I12MXEo+wADs7oNlvNPYwEMiFb2RuUgChqeZViood20u3pST3DG4nbHNcB44PKsaNvUqXkEtzwBHI7NTlg/WMemfk87DzgA4QDQ84kvDR0i4TcRmYswl8LxbyKSGcvn0ANxPX8nmQDMDOVTnz8JtBA/uRi2DgNx9HmqKyewprGyXe0GGBhkxWq3ckdUDkL0QJSDEDkQOAylGwB1ud2A9kMAcK7D23HrxdRMClE4/iPfNy1vfQA7/1S/LTmAQagOQgkRnfQpkaoHcAJRv7ucJ48ATJ+0L1ucBxAObTu2/ztyEvkDPfJP5NYJVzL6xi/MrGtgkNHV/c2oHAMcAnSLTznSBqceryvkUGeEIo9PBbCd64BRRrGSAd0TKMWK3UAk/ACWdTPDxy/xY02tpLyluvIi1Hklbvzbcr9yEnnWq1RPGGyU3MAgo2PxMmAwtKzyDVpMef5wEvOyupqpE3cxAkz6AvsKHGcRkfDdfpRv6wlApHIcwqysvOiXEKQnEphLpGqY0W8DAwP/rP6n5iFcn+DTHQhaI4wQU0PLgGEErfeJVvnqrkXiBEBViIarQCaAtLeNtyA404lW3WR028DAwBfI2TIU2LUVbxhBdaiTEWTK0A3VWUTCs5k8uWP2EoBQKJdo1X0oo9tvX4qgehPRcBWqYnTbwMAgY6itDaDc0Mq37AR51xphphy/oZP9MtHK3tlHAEIhi+75M4ELTT8Cymii4QlGEAYGBhnDumUXAPu23iLIGGpDuUagKbcbh6CygGmT+2SyGt69ALrnTzbG/0e7AWOJTFxLccWUdtbwZmCz/waXNBidNGhnBuWGJL1nD9YVXATc20Yk8x7I+8BXoJsQ2YQ68flBrPqt/946lYug2hWxclE6gnZD6I3SC9gLSCY52ouA/QzVk46lZPyX/icA0aqbUB1pRts2SUAl1ZXrKSn/aztq9DMUl51p+t7AIIOITjwW5cgksonr2wwBEJ1CUdndSXlXKGSxc8deWLEjgeMQOaeFFLQGeyPO/dTW/oIhQ+x0i8f9EUC06lJUzaW37WuaIFTHoyAaGBgYpG0avz7JuwmHE5l0opHrjwiAw8hxH1NS/iAl5SMpLuuFcjwis4FYK958Mus+/l1GNMdVqemT9gWdajTgZ0lADmI9EA/FaWBgYJDq1X9lb5Tzk/9i53ojXBcoKfs/ikovQaU/MDdx0qXl1Ezq6z8CMDOUj2PPbj9+/q1mzz0Q5x5qawNGGAYGBqmdb2QkcT9zN4Vf8PDmczJhkLKXCJQuorjsLISLgA0JvCEP26nyHwGoz7sdpL/pYU8YzJpl44wYDAwMUoa7qnYArnZZejW5eecBblOcW8RsExrYK4rKakGOBpYl8PQF3BE+KJ3V/elLgJHKU0F8E/HOEuH3A4+xcgPBtPrdv7LqM/3H8qXekgAJv6Nm4mMUVnxgRoWBgUHS0cjVuA/7W801Y9YTDd+JMt7dHCZXceutf2D06I1G2B5QXPoh0yafimW/jNDD07MBroWEozkmkQCEQrkgt/lJrmf36mtVDDwmbVvrMcfhtnffcJ76ZFkiGQBzsa1qVE/NWGpIAwODtona2gBrl7n1yGpAAtNb1vXV2IzBnQdYJ/Ibrgb+bATuESPHfcwdVZci+i+8pKhSrqA2NJ4hoaa0LKq3+3+6548H+vlJpqMPHWSl61srvv5KT3viwVjFqwvsZifhDMDHEwn/xowGAwODpGLdR+cAe7tbyXMvReNWA1BY9gnCYx4M0khCoaAReAIYUfoswp0en9qRtR2OTlcVt21Qo5W9QX11hn1E955yTM890rL1/8CS950BD/019uIXK1u/cheqqAl3MaPBwMAgaVBxez6viHPb9/7icLuHCawXuxScZwSeIJrlj0Cjt4ecU9NVve0wO6kACvwkxxsOPTLlq/+1DfU6fME/Hc/n/T89gHpiazFQaUZDtkyuKkyfsBt2sC+W9EWcvqj0BboTP3MtAPKBrny7vdcA1ANfgnwKfAL6Npb1OoXjlmbNMVBNTQ6xDYNADkP0YFR6Ibo78bS7Hb5nRmAjsAr4AlgBugTHWoI0L6b4xpXm6CtFiF8UO8klUXiK4RXvf+9vJWX/RzS8EOVwd1OYMwKYYwSfAEaVriQSfhi4xMMElLZYMj8mADOq9qBZL/GTDHvt0FnO7b1vSgnAMyuX6zXzn4p9XpeKyLYyiurQNEpCm82I8KPRC++FwzEoA4GBRKsOh2CX+P6YgrdcT3vDd+ye40C06kuilY8ADzG8bIHvDGNNuAu2nAd6IfaGkxA6bm3DT1d1Z+A7rmIClsanlWhVPZHwO6i+hsjrWNarDB+/JCPts6xRRCq3pOTddrCWkeM+Tmt7AlrsWifFuXXbi0xuR7jH5UtOZFr4EEaW/cdMFolM//oIKh5squyXOQLQ5IxDxFfJIK7rf4QVtFJj/+tjzdz02gv2tP+86aRwVt65JcvWrWY0+ATVoU5IwUjQC7AZmOKv9USlGCgmWvUhkXA1Dbl3MmZMfWZlcPOeWMEbsLkaNNlpYAuA/0Hkf7YSoUj4Y1QfJ6A1P1qVpha/93IPyxu5iL0FpI8ATA11RsVtTvl3KC5/ZtvEpcODBLZMcn1L3aIEGG4mjgTQrM/jzXGtJzXhLhSWfZVybvz9CWFST8Q/bn8AnXPzuKLfwSmx/gvXfKlHPnxPbGpqjX+LpOV6ZobyzWjwCyvPywGdCCk3/j/EfsBU8hsXEanMTFKtqVPzqK4MIcEPUK4D0pUDvg8io3Csw4wCJoicgivAbVA22f5Z/6hRjQgz3I8XLuPWW7uaDkgAoyrWoKzy9ExTq3MMJEAAcIYSP9v0DYYfdJjVOTcvqe90VKn+70LnhL8/EPtw44b0bMcqu7Il71wzGnyC4vINwLoMMpBeILVEwvdQE+qQts9GqvYjuOVlRP7A98/00wfV14wCJiQ3QbXYZekNBOof/OmJMHgn8bscbtCR3IZhphMSHe584tEypyXy7vcJgOilviK7lkXRQQOSuvr/dPMm/cUTD8ZGv/is3WSnOfmSyKVmJPgKS3xQhyuw858nUrljyr8UrTwZ9BVgQAbbu47iso+M6iWA6eHBwAEuDc4sCkM/fe9hxNgVIE97mL+KCYUs0xEJEYBNHtleWnblvu3M6spB6bx84AYX7XOAtXvHHZJ2ePfIx4udgXPuiT3/+aeZuoR1qkkU5Css9Uk9BoLMawntmiLjUXUaKk8R91zI5Ez4uvEOSHQHQErclsSRGpclZ3iowT50zz/ddEQCcMSbK6BYadmJ/y6bu8xvMruu/xFJYZsbGxu48tkn7N88/Xd7Y2NDJpsURGImMJDZAdgWBtGos1BN/m21aeFDcPQRIPOXe9V51ahdAqi+eU/gHJelF1BSusjdjNT1ceBLDyRkhOmMRHiv09EbYaAufQRAVbDkV36S16l79JZDd+7e6snwuc9W6ICHZsZmL13k+KNl1gVmNJgdgO3gPKJVo5P6xpmhfALyAOm76PfTCJjz/8SmjUAh7sL3gup01+8tLGwGucd1edEziFTubTrEMwPo7K28nRaX8bhCTZ94EBro4SdxXd//iFbF/G+Ixbh54Uv2LW+/5jjqpx1HPYJbQ10ZHdpoBkWmu0KXID/LMb9uIQorUNYDzYhsBG0E3QISQOiCo7sj0o/4+XprQqf+kZrwHArLPklKG+vzrgM9OMGnG4EXEBbi6CJE1oC1GbED2LJD/KKSdkKkK8peCP1QDiMeH2A782CuIQBeURvKZY1c48qTUVnFLo2PehsHzp2IjMedr6QF1m+BMtMxnuCNNAX5On0EQAOD/SSp/XfcSU7bo3fCq/9FG9bpFc8+br+zbo0PzxolQF7+scBcMyYy3RXf2wFwgEUIrwOvgfMu5CzZGkPdLapDnbDyz4pvleqxCdSqIzYh4KpWt6861AmkLAG5/AeHW8iXR7m61NtEpCpUVx1IQE5B9UzgRL71LFpG4di1GWB6C0CaU6RDqfckWZv/a9f++qJ3e04kU1K+lEj438DJLvt4KLWh36crYU3WY1rVbqBewsErdtMn6ahaCwHgJMQ/8rrh0KMsEe8VUlUi773llL0y325M9w1/TxWVwYYA+ADF5RuIhO8DeYbcnMe5Zsz6Vr8zHu3xb8DfuKPqFCyN4D2p1qVEb76Jot991rrK5F+Mt0t/G1EdTVHZPQlf1Is/917Lz1RqQh2IFZyJaBEiqzLSz45ewIjydVmsqW4v/zkIf0mQyMxAXRIAoQfr8s8Das0k4mbPxDnRUyAq4TOKQ2k6AgiFLITj/SKr7gUduajv/p4v/31W97Ve9e+n7H9/tiILbhjrYDMq/EICyi5P2btHlD5LTWgAsfz7EM738GQuBC8Hwq2beLgI96NhA8jRlJR9SEl58mQQd0WbA8xhypQCo3AeEa0cgHKMy4XFPykuW57Qd5o7PEpwy1riOR/crFELDQFwTYrP8mYe+CBt3IQeeXuRcdeg78yZhxweyA96O0L9xr0vO4w/IBxATU2OGRntAIWhLeyy94WoPOnxydZFCZwZykdxfwShcg3FpR+mVBaZDn2cjXDv+gcwM+HvxCMD3u/hicFMn7Sv6aCfwYwJPQCvF+xfSR8B8JHvf4dgDtfs39/16n9TUyMlzz9t/+bpv9vrG7JqbgnSvK6PGR3tBEOG2OTlXI6XyIPK4S2TR2JoyDsA91E9P2ZN/WOmo3yGeHCoi12W3oBd8HgrFyYzPZV2nN+aTvoZNAfG4jW6rjIvfYZIPZ9PpgxD9zvY6lbgLjrpq6s+16HPPWF/tOmr7AwqEgj2AxZnt3bLnkQqMz8JqP0UJb/71NeiumbMeqLhG1Hcu2jFrOOAhxPsGy+rsxcIhRwM/Da+huE6XLM8yKhRja363PCyd4iE38R9foyhTJ36u1Z/t63ijkmHg3O9x6c2sqYhbTsAQVT7IZm/AWiJMMpF4J9mx6bqrVftCW++5NiaxQHFHHs/4Ins1nA9GFxGHEstm/ol8KnvxbWqYQbd8yvAZaIPtQYlTgB+whXvx1hpZmufIR5yt8j9BGrPStKXZ3ogAN0I1P0KmG067AeYMaEHzc4cvLoEiz5AKBRLHwEQ8cVW9Nm9+lp7d+76s0xk/mefaH4gKH868oRAa78ZU4fp7y10Pq+rSz+TsDDBNNrfpO4QDT+M4jLYjx6YOMGko4eLxyZLpd8QD7m7j8vSixle8XJSvpubO5umpltc64RQaAjAD1A9qSfNzpOAV9uqiFans6pB0K74wAdwzKFHujr7P23PPnLann1aXeFPNm/Soc/NtTNi/AFUupqR0g7h8AjilgDQmvs57v3elT1Mx/gMyrUepuV7k/bda8asJ1L1d9CLXC5ZT6Bm4v4UVnxgOg2YPvFoHHt2PNunV8g8hle8n951KOlJO/hTGNR9Vzm65+5pYyEPLHnfOax2Zuz/vliZwTME7WRGSztEh4Y3ALdBKnZLfGSr+wA+wsmEQkHTOT5BdHJ3BLeuYw5O8N6kfl/U22XAWOAas+qf1JPqyttxrBcSM/7EcHRsuqttoZJxAjD2sCPTkmJybf0WLpz3qD30ubn25uZMB7HKvNwNMoBhoQbAbTrcTvFofgnAtlZ4KN2NXfIuNJ3jl9W/fRng1k14QTytbxKx897PgLi/UyN6BbWh3HbZV9GJxxKpmoE4yxAZBSR2NC1UM6LsvXRXP4hkNklIn86d5exe+6ScADy7crlePf+p2Od1m30yyDEEoP1iCW6jAzoFnYHNCejXIk/lRaYyrWoBI0s/N92Tacgw3EZwUp2V9M8PGWITrZyFyo0un9iFNXnnAw+2+a6pmdQX2zkKZDCiZ8SPz1q9kfwOVkNFJpoT9MA0U4Lr+g+yglbq7L9/kwKRZya6dosNrksGnMQu6I0s/ZxIeDHuwxB3I6DPMGPCYK69cZXpokytKKuORF0nb6oj33o4JfVw+CtCBW4viFlyrS8JgGMdSKTyVJeld2z53QW1chHtgbAXKj1B9wT2wHa6fMOwSY452UjAuqAlYmZGCEAd0DETH98xL58r+h2cMuv/3vq1euVzT9jv+jIpkG7GoJ0u8HQT6vLKi1qtIIryKGiphwcOoDnwCpFwMcVlT5mOysS0wDAPpb0na3KLkvKlRMMvoJzgst4nUzOpL4XjP/LZWLsB5IYEnttq55Nl6beBTYhzFoVlGZOZhWpdpj5eeOBhVqec5B8dqSrV/13oHPXIrJg/jT8g8jUG7XSSlwb3OwB24pdjxZmOF2+AOHoDT1IdfoRp4UNMZ6URU6YUgF7surwls1Ksp3d70TZijrkM6B4bEDmNoooXM1mJIEJGDFGOZTH8oAFJX/2vrPtahz33pL3g8098HiVI2wIBeB20IvOi1LfS9q2aUAc0tzca6IQ6nRG6oFYncHJQaz2Wsx4NridWt5xRoU0ZlUtR+XKqK2sQGeGdPHA+Ac6lOvx3AhLly/pnTbTAFKOg+VcobtPGfsZOfZ5LaX3qrDl0tKfh1lNMGEpNze8pLGw2nfmTeAvVIRSXLc10RYKQmZXoxfscYO3WsVNSXf8e+XixU7Rgnr2hscH/KqC0BQKwluLyZ9rsML3jll4E7BNAD0b1QJADsekNWPFtQfnOFqHEtw1VABuC+RAJrwaWAosQXQTyX5qdhWltQ1P+TeQ1noPb6IM/WGMinI+j59M9fxmR8F0E7JkU3viFmcNTQmSv8sDQ7mPIkNTmPB83ro5IuBa42uUTPXHWnwU8ajpzm3BQjdChcVyLN1DGEQRdle5AQAJcf+igpK3+NzTWM/KFZ+zajz7InhWKYC5a+RHRygGoXAKcB7F9vj3+S2iMdG/5OWbrmX/QAkhf5qrRozcSnXgJaj1D6yL+7Q1MwA78L5HwE8BfWN0wz+wKJAnTJvcB+yT31MyelZZ6iTMTta52XV7lWkMAton5qDWakvFv+6lSFpL+hDSn7dlHDt5pl6SwjvmffaKHP/TXWFYZ/7g9WWzGhE9QWxuguvIiqsOvo7IQGIv7MKyJoCCt7SuqeBGVy/F+H2A7iwbOA56ke94yolU3Ma1qN6NErUTAHko8MJsLI8sbaYsYN7z8JcBLmujTqb55T9OhLT2l8iToaRSXDfab8Y8TAJW0G6Lr+x/R6jj+zY7NzW++ZJ8xtzb2Wd3m7MsK5IghAH5ApPJU1i17C5G/IRzRZttZUjoHOBcvLog/z2J7ofpHArqCSPhhqsPHGIVKAKGQBXqlh8XDrLTVTUQR/uptURm8sp336FLQSgLOgZSU/j8/H5MGEVlMGv3jD96pm5yye69Wrf4/2LhOr3z2CfuttauzNx2g1WAIQCYxeXJHOjq3gV6DtpM2F5c9xR23DMCKPQAk01gHgV8h/IrqqpexnD+zqvFRczzgEt3zTvYQPraJQDC9yXdiMouA3oz7KHdDUZ2ASHsZWZuBF0EW4Mg8RoxfmC0Vt2ioX0waGcDoQ4+0JMH0w6rKXR+86/zPw/fGstr4w0aKQqvNzJchRG/enY7OK6Dtz21pxNgVrG44EbgRUnARVfRoVObQI/9topPOMsrmRmaWh8t/PEnh2LVprd/I0s9Rmefhib5UVx3fBnuqHlgEPAUyGeVKRA9ndcOOFJedQXFpZTYZ/zhzHx3aSHX4Q4T9U/2xHh06cuHe+yV0+W9VfZ0WLphnP7niozbAKvVlDDKDO27phcbmg/ZutzKI5xufyIwJd9EU+F+Eq/Gat/xnVZxDwHmcSNWLYBVTPO5do3zbQKRyR1TP9yBXJVJZmvZ6ijZ72imz9CrgeR9I+CkQl7qnm0GbAQfYgLAh/lvWIcHP0k680kIA4g3/N0jKCcDIgwcG8oPe55nHli9xihbMs9c11LcNqSvzzcyXAdxVtQONzf8A6W2EAS0hf4czreqPWM5vESki7rWQTGU/FuxXqQ6XUVJ2uxH6D8VjXYyoe+8M4XyQ89NfT8+M4dfcVTUyZZEK3ROXORSV3W0U7acIgMV8lKJUfqhDMIerD+jvafW/qamR8lcW2DMWvdPGzhID/zaqlwE06l9A+ifhTR8Bi0FXI7IK1fUty55GcPJAOoAUoM5uiPQC+gC7+1Yu8QRAIaZOrSSn/tfxuUCPTeIX8hFuI1I5kG6N1zAk1GSUcatlHdZGG9aRJudCwBhf3xOA+sYF5Oc7uHVDSQDD9j/E2jnfvffTa6s/16HPzbWXfrWxrV0kWceaLWY7NN24I3wu8JsEn25A9WFEZuM4rzCiYp3nN9x6a1fymg8B5xfAMF8SglGjGoH7gfuZHj4UmyKEy0harhC5nDUFO1NTc56JFgdEJvcHu+16nqh1lSEA/kbc4I8JrQdeT9l6V4SRhwx0RS5ijsPNb75kn/jYA7E2aPwBnjG3o9M9EalgMSGBJ5uAiTjOHpSUX0Zx2dyEjD/EA/IUj3+B4rKbyIa0qcPL3qGkbDjongjlwGfJ4QB6JrEN04xSAtjD2vjAO4Y7JvYz/ex3AhCfJFPmWnJu732tvTt3/dmr/4s3rtfjH7s/9sc3XnRsbbMeJA8YtUszolVnAgd5fOodHA6nuOzGhI1+W0Bx+QaKysJ0a9gbuBxofd4FobBlR6b9ojaUC1zaxlspWDLUTEDZQAAaG/8G2piKj4x2Efb3gSXvO0c9Miv25pov27Lv6GpWN/zLqF3a4XHrX/5LIHgqI8reM6JrwZBQE8Vl91FcdjgqJwPzWvU+i6lMnZrXbuW5Lu9sYJe231C5gtragBlAficA8WOAecn+wKDuu8pRPXbb7up/TcMW/dW8R2NDn5tr1zW3+WPB2S0uWAZpW2nVBoBfui6vrELltLbo8pM0lJT+m+KyMxA9BXgzwbfsRbCuFRHjxP04kmCO72So0l6i5e3Omo9OM4PG7wQAwJJ7kv2BcQOO2u7q/+lPP9ZBc+6JPbF8qbYTad9nVC7NWL20L7CzhyfGUzL+SyM4Fygqf47VDUeiXA9sScAIXpu4/ffwvWCyLjEmCdHJ3YEz2o+Vsa4wg8Wf+L5T/pcNc+mevxhIysWNPp07y9m9+v6IANTHmrnptRfsaf9502kvsSIR/RfDy98xKpfuySdwoAcn5o3YHR40QvOA+IXW26muehphHqj7RDDCEUQre1NUvtw7efBAAJqcDv5a/TuXAF52JTb4sOd3dN9ePY+poc6MCm0yA8bPBCAUcqgOT0K4Mxkvv77/kVZAvm//31zzpV753BP24o0btF1JWjVs1C0TxIu93Nt/eaXFFc7AK0pKF1ETPg6b1/EUTMg6HliewBfrXJcMSEefTQZeVsTvUFx2mO/6Oxp+Nx7t0RUKCBRcCNxlBorP1kc/pgQ7zk5wQH6fHublc3m/g7a+P+Y43PL2a86Jf38g1u6Mv/AyxRUvGHXLABx28FB6uRFYK1BY9gmixR6JcYKBmdTDkYPu7BsZTQsfAgzwUPf7/bmgEW9eY5aaY4CsIACFhc0ok1s9Fxx4mNUpJxeATzZv0tOfqI1VvLrAbrLt9idl1T8ZVcsU+VIP27+6xQislSgqfxjlAw9P9Elw6qrzUHg/38gngBdD6BCzZvuzo50H8RIgWDmeSOXeZoD4nQAArGmYCZpwtLocy2L4QQMsiLv3DXhoZuyFLz7V9ilinefnfNBtnwCIh7CzPlopZrfOP+ShbLcEv/GFByXwBwGIe6R48f1/nlGlK33ZxcXly4BXvYxExLrcjI1sIAChUAyVUYmmCb5k3wOtDsGgXPHsE/bQ5+baXze119DfWk9OcJRRs0wuVNTDSlG6G4ElhXQt9lC4Q4Lf+MjDODzQF3JZu+wXwK4e6n2/z/vZ2+6E6uWoihkgficAACVlLwGzEnnpgTt1k8Meujv2t6WL2nfIW0equHbcx0bNMjpJrck6Q5H98BI5MbGdQcdZ6qH0Udwx0Q+7O162/xtpzJ/j8/mtFvByptuXSNWxZnhkAwEAiGkF4CkgiiVC2cvz7c/r6rR9i1Y/xOnwZ6Nime4G9bBSlF5MDx9qhNZq1tXTfVESSxcbCHjoV3KQwHkZFcnUUGfgHA9PzGX06I2+7uaS8V8iHlObW5jLgFlDAEZVrEH1Ki9HAY4qauTagAYuNy5lPkAw+IGnVaYjFxuhtZp1ub/Z72hiQZeky3LAQzRAHZpZPcwbAnTwUN/syBnieD0GYAhTphSYMZINBACgpPyfiEwxovKk5DdQMv5tIwgfIB7Sd5GHzhthbiu3AjND+Xi56GZZHybWr4XNwEIPTxxHdfjsDErGy8p3I/mNc7Oiv8V5BPCy0OlCQdO5ZqBkCwEAWNVwE+hLRlxu7IfOoaRshhGEr/Csh7IdQR7hzik7ZX2r76g6heiks6ipSV8s/PqCaXhJcuM4r7bia097M1b8hWmT+yRxrAszJvT42XKRyr1BjvPw5ocZFmrICh0rLt8A6i2HjJpjgOwiAKFQjBzrMlQ/NyL7ScX+D5utQiMI35Gyez0+cShNTa8QmXR8do9uvQp1Hsfe8AWRcITq8HEpu4U9eXJHouG/gF7j4aktNOYlHiDLsR71+ERPgvbzVIePa1VbozfvTnXVjUSrltAcmO7S4LmXu8r92TW+PKc4P42aCbtikHEEXZe8tnQl0yeeicpzKDsZ0f1oEKwkV86ltPRrIwyfoaT8dSLht/AUgY19wXmeSOUChNuxGudRGMq2QEFHtvzeGShCKCIaXkE0/CBqPUmgy0stW+mJ484pO9HcOAy1R6D09rgir2XMmPqEvz1i/EKi4YUoh3sYp3sgvEAk/BSW3IrUv+iqX6dN7kMgdgrIeShnIPpNitvOqAoiut1dgmjV5R5kspLV9QuySssa8/5BftMmoLNru+NYlwDmknTWEACA4RXvE606p2XLp6MR31asRZ0zuLZipRGFb3ET8IT3x+RElBOx8xuIhBegvAX6IchiJLAZYpsJ5Gwi5gQR+9tLXo4UYGk+WDlAz5YkOb2B/sCglLc27vbWdxvt6YUyHpzx2Bs2E6l6B9X/AouwWIXN5wTs9ai1BTuoBGIbsYNdsWIBhC5IYFfU6YWwL3A8TU2HgiSS790Bndp64i1TQf+awJO/xNFfQn4zkfDbKCuBDaBbEOkIdEHo0rLY2RvsLttZxO9CdFI/YNt3GaKTj4s/75qg/K0lwVL2YMyYeqrDcxCu8tDOKwwByDYCAFBU+hp3TLwUy6oFco0I+Qr0bEZULDai8DGKy+YSCc8DTk/wDfnA6Qinf2sIbEDAjrX86TsGwvrmvzPkEyMyiJ/fdu4EeizCsS2Tcrze3yxuAy3t++Y3gDpsLds63ENR+Vutfku3PvexdlkpcECCb8gBBiHfkDL5rpFya8yO2y4BwGMMfLXuz8rxZem9qFzlQUH7E60ckBQdMEi82xJ6akTFk9h6FtDO0zvql6h1GsXlbxpVygLYchXegtRk8ci2jvJx7ZaTmzs2KW8aMsTGkZGZY1qA6LaD20yZUgB6oYc3vZe13kOrGp8HPvE2fYq5DJiVBABgZPl8xD7JW0zutmT79WMCgcHG3S+LMLL0c0R/DTS0+bY6W8///YavcKwLuGbM+qS9cUTpswhTM9imbV8qzGs8D+jigUncn7X6Fgo5CYQuviStHioGSSQAAEU3/hcYDCxtZ3J7FVuPo3D8R0aFsgxF5fNBLgLq23Q7RQf5sFbrUD2NEeMXJv3NqxrGAk9lqF37btMdUCwvK1xFnNlZrXNqefW26Y7z1ekYZCkBgHhWqK/lKFRr24nM7iTW4VRGVawx6pOlKC79ByInIbTNS5vxQEa7+KpOyhs4wYGUlL+eohVojLrAhRkjATHr+7sANRN2BT3NwxtepKh8eVbrXUnpIpQ3vOmFmmOArCYAAKWlX1NSfhlwFdBWc6pvwpJLKC4rNiF+28JOQOlrNDccBEwDmtvWqNb9wTcRuTcjOpY1DUczYuyKlH5p3Lg6VjecA0wB0nuTXuX74Y9jgUsBD94Ren8b0b77PAruHCKVO5oJKZsJwNaVVdl9WJyI8k6bkpIwHyc4kOGlc4zKtCGMCm2iuGwUdmA/hBlAnY9qp8BHxHK912l4xZOg+yDye+DtDNV/HaITCAT7UFT+Z0KhWFq+GgrFKC67AeV4hIUp/tpmRGYjegpFpaEfzKxeVrZNOPpQ27Aogdl4ydEAecBFZjLKDIJJf+PwsncIhY6ie/4lwGTiQUiy1fB/gXIjw0vv326gj7YGYSmKW6+GtnH3Y+S4j4HfclfVDTQ5F4Kcg3Iq6Yh1oaxCWA6yHNEVOCxFnXeRpvcoCW1OnIyXLwP+BPyJ6pv3xAqehSNnIXoC0ClFrdkA8jTiPMTOjY8zJNSUsT4tKXsJ1SOIVp0JFAKnAslIQvMFyFzQxyhoeHZryN6i8m9LRCt7ozSBy3Ek+iojKtqGd0rRuNVEqu4EL3dQLPcZOHNxqMe915Vaa2lPsFjlYf52JKWVqZ7UE+xKRC5O+m5DamflZtSKYtf/kVGhdu7q2E5RU5ODvekAsA9GOQTRg0H6ATu0/GzPiDYA60HWI7oeWI2yCtW1iKxBZRWqqxFZQ2PO8lZFwktshRykW+5ArMDRqO7fEtDnmzsDbglPI7AK+ChOGHUhlvUGO/V5iyFDbH/2Z6gDsbwTEDkcOJx4UKbdgB7bmZsagC8QPkXlfXDewdLnGV7xvhkcBm1nvZcOxJNhjAWGpmTXIXloQvUhgoGbzQ1/Axd6vSOOWljitKy6N2R1e6ZMKSDYvDNBJxdLdsDR+Fi1pYmA1gEbCOy0udXhg/1IDuy8vK19GWhszMKwzwYGPiUA3yMCjAO5lHhkNb9gE+idaOA2SsZ/adTCwMDAwMAQgJQw7nAXbM6OEwHnZJAM1ENtsOaD3k9d4FHGjasz6mBgYGBgYAhA+sjAXsT0QkQGA8eS2otXG1FewOIZGu1HuP7GVUYFDAwMDAwMAcg4GajJwVl3JGoNRjkU0X4gfUko6ZDWA0tAlqD6BsJ8uvV927eXlAwMDAwMDNotAdgWamsDrP2oF8h+qHZG2AGVrljSEdVcRBpwnM0IX2NZG3GcjQRkMb8t/bTduO4ZGBgYGBh4xP8HuW+qjNTS8jsAAAAldEVYdGRhdGU6Y3JlYXRlADIwMjQtMDktMDJUMjA6MTg6NTkrMDA6MDDnkV1iAAAAJXRFWHRkYXRlOm1vZGlmeQAyMDI0LTA5LTAyVDIwOjE4OjU5KzAwOjAwlszl3gAAAABJRU5ErkJggg==;" parent="1" vertex="1">
          <mxGeometry x="289" y="397" width="134.74" height="25" as="geometry" />
        </mxCell>
        <mxCell id="sa8KiKjpAbw4O3BdEmPC-7" style="edgeStyle=orthogonalEdgeStyle;rounded=0;orthogonalLoop=1;jettySize=auto;html=1;strokeColor=#0000CC;entryX=1;entryY=0.5;entryDx=0;entryDy=0;" parent="1" target="ENiAY2C4UwKz_ZY1WDa7-4" edge="1">
          <mxGeometry relative="1" as="geometry">
            <mxPoint x="369" y="375" as="sourcePoint" />
            <mxPoint x="271" y="309.5" as="targetPoint" />
            <Array as="points">
              <mxPoint x="369" y="297" />
            </Array>
          </mxGeometry>
        </mxCell>
        <mxCell id="sa8KiKjpAbw4O3BdEmPC-8" value="retrains the model" style="text;html=1;align=center;verticalAlign=middle;whiteSpace=wrap;rounded=0;fontFamily=Courier New;fontStyle=0" parent="1" vertex="1">
          <mxGeometry x="238" y="275" width="132" height="30" as="geometry" />
        </mxCell>
        <mxCell id="sa8KiKjpAbw4O3BdEmPC-9" value="stores&lt;br&gt;the model" style="text;html=1;align=center;verticalAlign=middle;whiteSpace=wrap;rounded=0;fontFamily=Courier New;fontStyle=0" parent="1" vertex="1">
          <mxGeometry x="102" y="383" width="69" height="30" as="geometry" />
        </mxCell>
        <mxCell id="sa8KiKjpAbw4O3BdEmPC-10" value="calls the model&lt;div&gt;for prediction&lt;/div&gt;" style="text;html=1;align=center;verticalAlign=middle;whiteSpace=wrap;rounded=0;fontFamily=Courier New;fontStyle=0" parent="1" vertex="1">
          <mxGeometry x="250" y="508" width="112" height="30" as="geometry" />
        </mxCell>
      </root>
    </mxGraphModel>
  </diagram>
</mxfile>
